<svg xmlns="http://www.w3.org/2000/svg" viewBox="0 0 32 32" width="32" height="32">
  <rect width="32" height="32" rx="8" fill="#7c3aed" />
  <path d="M16 8a4 4 0 0 0-4 4v4a4 4 0 0 0 8 0v-4a4 4 0 0 0-4-4z" fill="#ffffff" />
  <path d="M22 14v2a6 6 0 0 1-12 0v-2h2v2a4 4 0 0 0 8 0v-2h2z" fill="#ffffff" />
  <rect x="15" y="22" width="2" height="4" fill="#ffffff" />
  <rect x="11" y="26" width="10" height="2" fill="#ffffff" />
  <path d="M5 14h2M25 14h2M7 11.5a12.5 12.5 0 0 1 18 0" stroke="#ffffff" stroke-width="1.5" stroke-linecap="round" fill="none" opacity="0.4" />
</svg>
